<?xml version="1.0" encoding="UTF-8"?>
<svg id="Calque_1" data-name="Calque 1" xmlns="http://www.w3.org/2000/svg" viewBox="0 0 168.01 159.7">
  <defs>
    <style>
      .cls-1 {
        stroke: #0465ac;
        stroke-miterlimit: 10;
      }

      .cls-1, .cls-2 {
        fill: #0065ac;
      }
    </style>
  </defs>
  <rect class="cls-2" x="30.75" y="48.76" width="30.35" height="30.35" rx="15.17" ry="15.17"/>
  <path class="cls-2" d="M157.9,43.91C157.9,19.76,138.14,0,113.99,0h0c-24.15,0-43.91,19.76-43.91,43.91h0V108.08s87.81-9.78,87.82-64.16c0,0,0,0,0,0h0Z"/>
  <path class="cls-2" d="M0,129.14s0,0,0,0H0c0,16.8,13.75,30.55,30.55,30.55h0c16.8,0,30.55-13.75,30.55-30.55h0v-44.64S0,91.31,0,129.14Zm30.55,8.03c-4.42,0-8.03-3.61-8.03-8.03s3.61-8.03,8.03-8.03,8.03,3.61,8.03,8.03-3.61,8.03-8.03,8.03Z"/>
  <g>
    <path class="cls-1" d="M85.33,128.62c-.93,.49-2.09,.74-3.48,.74-1.79,0-3.23-.58-4.31-1.73s-1.62-2.67-1.62-4.54c0-2.02,.61-3.64,1.82-4.89s2.75-1.86,4.61-1.86c1.2,0,2.19,.17,2.97,.52v1.57c-.9-.5-1.9-.76-2.99-.76-1.45,0-2.62,.48-3.52,1.45s-1.35,2.26-1.35,3.88,.42,2.76,1.26,3.67,1.94,1.37,3.31,1.37c1.27,0,2.36-.28,3.29-.84v1.43Z"/>
    <path class="cls-1" d="M92.73,129.36c-1.79,0-3.22-.59-4.29-1.77s-1.61-2.71-1.61-4.6c0-2.03,.55-3.64,1.64-4.85s2.59-1.81,4.47-1.81c1.74,0,3.14,.59,4.21,1.76,1.06,1.17,1.6,2.7,1.6,4.6,0,2.06-.54,3.68-1.63,4.88s-2.55,1.79-4.38,1.79Zm.11-11.69c-1.32,0-2.4,.48-3.23,1.43s-1.24,2.21-1.24,3.76,.4,2.8,1.21,3.75,1.86,1.42,3.15,1.42c1.38,0,2.47-.45,3.27-1.35s1.2-2.17,1.2-3.79-.39-2.95-1.16-3.86-1.84-1.36-3.2-1.36Z"/>
    <path class="cls-1" d="M111.38,129.15h-1.81l-6.49-10.05c-.16-.25-.3-.52-.4-.79h-.05c.05,.27,.07,.85,.07,1.73v9.11h-1.48v-12.6h1.92l6.31,9.89c.26,.41,.43,.69,.51,.84h.04c-.06-.36-.09-.98-.09-1.85v-8.88h1.48v12.6Z"/>
    <path class="cls-1" d="M123.27,128.62c-.93,.49-2.09,.74-3.48,.74-1.79,0-3.23-.58-4.31-1.73s-1.62-2.67-1.62-4.54c0-2.02,.61-3.64,1.82-4.89s2.75-1.86,4.61-1.86c1.2,0,2.19,.17,2.97,.52v1.57c-.9-.5-1.9-.76-2.99-.76-1.45,0-2.62,.48-3.52,1.45-.9,.97-1.35,2.26-1.35,3.88s.42,2.76,1.26,3.67c.84,.91,1.94,1.37,3.31,1.37,1.27,0,2.36-.28,3.29-.84v1.43Z"/>
    <path class="cls-1" d="M132.51,129.15h-6.68v-12.6h6.4v1.34h-4.92v4.19h4.55v1.33h-4.55v4.41h5.2v1.34Z"/>
    <path class="cls-1" d="M143.97,129.15h-1.76l-2.11-3.53c-.19-.33-.38-.61-.56-.84-.18-.23-.37-.42-.56-.57s-.39-.25-.62-.32c-.22-.07-.47-.1-.74-.1h-1.21v5.36h-1.48v-12.6h3.76c.55,0,1.06,.07,1.53,.21,.46,.14,.87,.35,1.21,.63,.34,.28,.61,.63,.8,1.05,.19,.42,.29,.91,.29,1.47,0,.44-.07,.84-.2,1.21-.13,.37-.32,.69-.56,.98-.24,.29-.54,.53-.88,.73-.34,.2-.73,.36-1.16,.47v.04c.21,.09,.39,.2,.55,.32,.16,.12,.3,.26,.44,.43s.28,.35,.42,.56c.14,.21,.29,.45,.46,.73l2.36,3.79Zm-7.56-11.27v4.57h2c.37,0,.71-.06,1.02-.17s.58-.27,.81-.48c.23-.21,.41-.46,.54-.76s.19-.64,.19-1.02c0-.67-.22-1.2-.65-1.58-.44-.38-1.07-.57-1.89-.57h-2.02Z"/>
    <path class="cls-1" d="M152.69,117.88h-3.64v11.27h-1.48v-11.27h-3.63v-1.34h8.75v1.34Z"/>
    <path class="cls-1" d="M154.08,128.64v-1.74c.2,.18,.44,.33,.72,.47s.57,.26,.88,.36c.31,.1,.62,.17,.93,.22s.6,.08,.86,.08c.91,0,1.59-.17,2.04-.5,.45-.34,.67-.82,.67-1.46,0-.34-.07-.64-.22-.89-.15-.25-.36-.48-.62-.69-.26-.21-.58-.41-.94-.6-.36-.19-.75-.39-1.17-.6-.44-.22-.85-.45-1.23-.68s-.71-.48-.99-.76-.5-.59-.66-.94c-.16-.35-.24-.76-.24-1.23,0-.57,.13-1.07,.38-1.5,.25-.42,.58-.77,.99-1.05s.88-.48,1.4-.62,1.06-.2,1.6-.2c1.24,0,2.15,.15,2.72,.45v1.66c-.74-.52-1.7-.77-2.87-.77-.32,0-.64,.03-.97,.1s-.61,.18-.86,.33-.46,.35-.62,.59-.24,.53-.24,.88c0,.32,.06,.6,.18,.83,.12,.23,.3,.45,.53,.64s.52,.38,.86,.56c.34,.18,.72,.38,1.16,.6,.45,.22,.88,.46,1.28,.7s.76,.52,1.06,.82,.55,.63,.73,.99c.18,.36,.27,.78,.27,1.25,0,.62-.12,1.15-.37,1.58-.24,.43-.57,.78-.98,1.05-.41,.27-.89,.46-1.43,.58-.54,.12-1.11,.18-1.71,.18-.2,0-.45-.02-.74-.05s-.59-.08-.9-.14c-.3-.06-.59-.14-.87-.23-.27-.09-.49-.19-.66-.3Z"/>
    <path class="cls-1" d="M87.8,150.95c-.33,0-.63-.05-.88-.14-.25-.09-.49-.22-.71-.39-.22-.17-.43-.37-.63-.61s-.41-.51-.64-.82c-.23,.25-.51,.5-.81,.73s-.65,.44-1.02,.62-.79,.33-1.23,.43c-.45,.11-.93,.16-1.45,.16-.63,0-1.21-.08-1.74-.24s-.98-.39-1.35-.7c-.38-.31-.67-.69-.87-1.14s-.31-.97-.31-1.56c0-.9,.25-1.66,.76-2.3,.51-.63,1.23-1.16,2.16-1.56-.18-.13-.35-.28-.53-.45s-.33-.37-.47-.59c-.14-.22-.25-.46-.33-.73s-.13-.56-.13-.88c0-.46,.08-.87,.25-1.23s.4-.66,.69-.91,.64-.43,1.04-.56,.83-.19,1.29-.19,.87,.06,1.25,.19,.7,.31,.98,.54,.48,.52,.64,.84,.23,.69,.23,1.1c0,.7-.2,1.29-.6,1.75-.4,.46-1,.86-1.81,1.19,.4,.16,.77,.35,1.1,.58s.63,.48,.91,.76,.54,.58,.78,.91,.48,.66,.71,1c.47-.66,.83-1.39,1.07-2.19s.36-1.63,.36-2.5c0-.22-.01-.43-.04-.63s-.06-.39-.11-.58h1.4c.05,.19,.07,.38,.08,.55s.02,.38,.03,.62c0,.53-.06,1.07-.17,1.61s-.26,1.06-.45,1.57-.41,.99-.65,1.45-.51,.88-.79,1.26c.21,.28,.39,.53,.56,.73,.17,.21,.34,.38,.51,.52s.35,.25,.54,.31,.39,.1,.63,.1c.18,0,.35-.02,.54-.07s.37-.11,.56-.18v1.34c-.21,.08-.43,.14-.66,.18s-.46,.06-.68,.06Zm-7.37-1.25c.45,0,.86-.05,1.23-.15,.38-.1,.72-.22,1.04-.39,.32-.16,.6-.35,.86-.56,.26-.21,.49-.44,.7-.67-.36-.56-.69-1.03-.99-1.43-.3-.4-.61-.74-.91-1.02s-.64-.53-.98-.74-.75-.4-1.21-.57c-.37,.15-.71,.31-1.02,.49s-.58,.39-.8,.63-.4,.53-.53,.85-.19,.7-.19,1.13c0,.4,.07,.75,.22,1.05s.35,.56,.6,.76c.25,.2,.55,.35,.89,.46s.71,.15,1.1,.15Zm2.2-8.97c0-.29-.05-.54-.16-.75s-.25-.38-.41-.51-.35-.23-.56-.29c-.21-.06-.41-.09-.61-.09-.57,0-1.03,.16-1.38,.47s-.52,.73-.52,1.27c0,.24,.04,.47,.11,.68s.18,.41,.31,.59,.29,.34,.46,.48,.36,.26,.56,.36c.74-.26,1.29-.56,1.65-.9,.36-.34,.54-.78,.54-1.3Z"/>
    <path class="cls-1" d="M96.08,150.75v-12.6h3.59c1.09,0,1.95,.27,2.59,.8s.96,1.23,.96,2.08c0,.71-.19,1.34-.58,1.86s-.92,.9-1.6,1.12v.04c.85,.1,1.53,.42,2.04,.96s.76,1.25,.76,2.11c0,1.08-.39,1.95-1.16,2.62s-1.75,1-2.93,1h-3.67Zm1.48-11.27v4.07h1.51c.81,0,1.44-.19,1.91-.58,.46-.39,.69-.94,.69-1.65,0-1.22-.81-1.84-2.42-1.84h-1.7Zm0,5.4v4.54h2c.87,0,1.54-.21,2.02-.62,.48-.41,.72-.97,.72-1.69,0-1.49-1.01-2.23-3.04-2.23h-1.7Z"/>
    <path class="cls-1" d="M107.88,150.75h-1.48v-12.6h1.48v12.6Z"/>
    <path class="cls-1" d="M117.87,150.75h-6.68v-12.6h6.4v1.34h-4.92v4.19h4.55v1.33h-4.55v4.41h5.2v1.34Z"/>
    <path class="cls-1" d="M129.33,150.75h-1.76l-2.11-3.53c-.19-.33-.38-.61-.56-.84-.18-.23-.37-.42-.56-.57s-.39-.25-.62-.32c-.22-.07-.47-.1-.74-.1h-1.21v5.36h-1.48v-12.6h3.76c.55,0,1.06,.07,1.53,.21,.46,.14,.87,.35,1.21,.63,.34,.28,.61,.63,.8,1.05,.19,.42,.29,.91,.29,1.47,0,.44-.07,.84-.2,1.21-.13,.37-.32,.69-.56,.98-.24,.29-.54,.53-.88,.73-.34,.2-.73,.36-1.16,.47v.04c.21,.09,.39,.2,.55,.32,.16,.12,.3,.26,.44,.43s.28,.35,.42,.56c.14,.21,.29,.45,.46,.73l2.36,3.79Zm-7.56-11.27v4.57h2c.37,0,.71-.06,1.02-.17s.58-.27,.81-.48c.23-.21,.41-.46,.54-.76s.19-.64,.19-1.02c0-.67-.22-1.2-.65-1.58-.44-.38-1.07-.57-1.89-.57h-2.02Z"/>
    <path class="cls-1" d="M137.74,150.75h-6.68v-12.6h6.4v1.34h-4.92v4.19h4.55v1.33h-4.55v4.41h5.2v1.34Z"/>
    <path class="cls-1" d="M139.58,150.24v-1.74c.2,.18,.44,.33,.72,.47s.57,.26,.88,.36c.31,.1,.62,.17,.93,.22s.6,.08,.86,.08c.91,0,1.59-.17,2.04-.5,.45-.34,.67-.82,.67-1.46,0-.34-.07-.64-.22-.89-.15-.25-.36-.48-.62-.69-.26-.21-.58-.41-.94-.6-.36-.19-.75-.39-1.17-.6-.44-.22-.85-.45-1.23-.68s-.71-.48-.99-.76-.5-.59-.66-.94c-.16-.35-.24-.76-.24-1.23,0-.57,.13-1.07,.38-1.5,.25-.42,.58-.77,.99-1.05s.88-.48,1.4-.62,1.06-.2,1.6-.2c1.24,0,2.15,.15,2.72,.45v1.66c-.74-.52-1.7-.77-2.87-.77-.32,0-.64,.03-.97,.1s-.61,.18-.86,.33-.46,.35-.62,.59-.24,.53-.24,.88c0,.32,.06,.6,.18,.83,.12,.23,.3,.45,.53,.64s.52,.38,.86,.56c.34,.18,.72,.38,1.16,.6,.45,.22,.88,.46,1.28,.7s.76,.52,1.06,.82,.55,.63,.73,.99c.18,.36,.27,.78,.27,1.25,0,.62-.12,1.15-.37,1.58-.24,.43-.57,.78-.98,1.05-.41,.27-.89,.46-1.43,.58-.54,.12-1.11,.18-1.71,.18-.2,0-.45-.02-.74-.05s-.59-.08-.9-.14c-.3-.06-.59-.14-.87-.23-.27-.09-.49-.19-.66-.3Z"/>
  </g>
</svg>